# xmcd CD database file
#
# Track frame offsets:
#	150
#	50122
#	98432
#	122305
#	137825
#	158931
#	195834
#	219727
#	256869
#	284207
#	310133
#
# Disc length: 4627 seconds
#
# Revision: 0
# Processed by: cddbd v1.5.1PL0 Copyright (c) Steve Scherf et al.
# Submitted via: CDex 1.51
#
DISCID=9c12110b
DTITLE=Eddie Lockjaw Davis - 80th Birthday Celebration CD3 - Your Horn Is Your Woman (The Seventies and Eighties)
DYEAR=2003
DGENRE=Jazz
TTITLE0=C Jam Blues
TTITLE1=The Man I Love
TTITLE2=I'll Never Be The Same
TTITLE3=Helena's Theme
TTITLE4=Lover
TTITLE5=That's The Way It Is
TTITLE6=Three Little Words
TTITLE7=Bye Bye Blues
TTITLE8=Angel Eyes
TTITLE9=Double 8
TTITLE10=I'll Allways Be In Love With You
EXTD=YEAR: 2003
EXTT0=
EXTT1=
EXTT2=
EXTT3=
EXTT4=
EXTT5=
EXTT6=
EXTT7=
EXTT8=
EXTT9=
EXTT10=
PLAYORDER=
